<?xml version="1.0" encoding="UTF-8"?><svg xmlns="http://www.w3.org/2000/svg" xmlns:xlink="http://www.w3.org/1999/xlink" version="1.1" id="Layer_1" x="0px" y="0px" viewBox="0 0 24 24" xml:space="preserve"><path fill="#4D4D4D" d="M11.5 19h1v2.5h-1z"/><path fill="#4D4D4D" d="M13 22h8v1h-8z"/><path fill="#4D4D4D" d="M3 22h8v1H3z"/><path fill="#F26924" d="M10.5 21h3v3h-3z"/><path opacity="0.1" fill="#FFF" d="M10.5 21h3v.25h-3z"/><path opacity="0.05" d="M10.5 23.75h3V24h-3z"/><circle fill="#039BE5" cx="12" cy="10" r="10"/><path opacity="0.1" fill="#FFF" d="M12 0C7.9 0 4.381 2.47 2.838 6h18.324C19.62 2.47 16.1 0 12 0z"/><path opacity="0.05" d="M2.838 14C4.38 17.53 7.9 20 12 20s7.619-2.47 9.162-6H2.838z"/><path opacity="0.1" fill="#FFF" d="M8 10C8 4.486 9.243 0 12 0 6.486 0 2 4.486 2 10s4.486 10 10 10c-2.757 0-4-4.486-4-10z"/><path opacity="0.05" d="M12 0c2.757 0 4 4.486 4 10s-1.243 10-4 10c5.514 0 10-4.486 10-10S17.514 0 12 0z"/><linearGradient id="SVGID_1_" gradientUnits="userSpaceOnUse" x1="1.754979" y1="8.302845" x2="23.1920567" y2="18.299118"><stop offset="0" stop-color="#FFF" stop-opacity="0.2"/><stop offset="1" stop-color="#FFF" stop-opacity="0"/></linearGradient><path fill="url(#SVGID_1_)" d="M13.5 21h-1v-1.025C17.789 19.713 22 15.354 22 10c0-5.523-4.477-10-10-10S2 4.477 2 10c0 5.354 4.211 9.713 9.5 9.975V21h-1v1H3v1h7.5v1h3v-1H21v-1h-7.5v-1z"/><metadata><rdf:RDF xmlns:rdf="http://www.w3.org/1999/02/22-rdf-syntax-ns#" xmlns:rdfs="http://www.w3.org/2000/01/rdf-schema#" xmlns:dc="http://purl.org/dc/elements/1.1/"><rdf:Description about="https://iconscout.com/legal#licenses" dc:title="internet,access,net,globe,web" dc:description="internet,access,net,globe,web" dc:publisher="Iconscout" dc:date="2017-11-13" dc:format="image/svg+xml" dc:language="en"><dc:creator><rdf:Bag><rdf:li>Those Icons</rdf:li></rdf:Bag></dc:creator></rdf:Description></rdf:RDF></metadata></svg>